<svg xmlns="http://www.w3.org/2000/svg" viewBox="0 0 30 34" enable-background="new 0 0 30 34"><path d="M30 22.499c0 1.1-.749 2.5-1.665 3.111l-11.67 7.78c-.916.61-2.414.61-3.33 0l-11.67-7.78c-.916-.611-1.665-2.01-1.665-3.111v-10.998c0-1.1.749-2.5 1.665-3.111l11.67-7.78c.916-.61 2.414-.61 3.33 0l11.67 7.78c.916.611 1.665 2.01 1.665 3.111v10.998z" fill="#C94E4B"/><path d="M20.089 18.283c-2.421-2.962-7.286-3.12-9.935-.392-1.389 1.431-2.031 3.235-.827 4.988.946 1.378 2.08 1.854 3.691 1.448.503-.126 1.02-.271 1.597-.271h.282c.554.058 1.046.267 1.508.457.302.124.611.25.935.305.709.129 1.47-.258 2.055-.627 2.224-1.405 2.304-3.939.694-5.908zm-8.758-5.059c.441.214.933.341 1.423.36 2.159 0 2.739-6.836.194-6.407-1.243.209-2.14 1.684-2.662 2.704-.703 1.377-.481 2.604 1.045 3.343zm-.617 2.195c-.114-1.248-2.205-4.053-3.684-3.016-1.508 1.143-1.328 4.326.334 5.306 1.175.692 3.231-1.136 3.35-2.29-.032-.342-.085.816 0 0zm5.974-1.655c1.205.179 3.19-.535 3.245-1.989 0-1.374-1.617-4.934-3.424-4.269-1.734.556-1.699 5.98.179 6.258zm7.3.772c-.067-.781-.414-1.508-.989-2.042-.797-.674-1.899.282-2.438.841-1.026 1.062-1.843 2.284-.705 3.542.554.613 1.655 1.493 2.556 1.131 1.186-.475 1.674-2.34 1.576-3.472z" fill="#fff"/><path d="M15 1.152c.429 0 .834.106 1.11.29l11.67 7.78c.639.426 1.22 1.512 1.22 2.279v10.998c0 .767-.581 1.853-1.219 2.279l-11.67 7.78c-.276.184-.681.29-1.11.29s-.834-.106-1.11-.29l-11.67-7.78c-.64-.426-1.221-1.512-1.221-2.279v-10.998c0-.767.581-1.853 1.219-2.279l11.67-7.78c.277-.184.682-.29 1.111-.29m0-1c-.603 0-1.207.153-1.665.458l-11.67 7.78c-.916.611-1.665 2.01-1.665 3.111v10.998c0 1.1.749 2.5 1.665 3.111l11.67 7.78c.458.305 1.061.458 1.665.458s1.207-.153 1.665-.458l11.67-7.78c.916-.611 1.665-2.01 1.665-3.111v-10.998c0-1.1-.749-2.5-1.665-3.111l-11.67-7.78c-.458-.305-1.062-.458-1.665-.458z" fill="#C94E4B"/><g><path d="M24.689 21.75c-1.28 0-2.327.48-3.072 1.348-.389-.844-1.196-1.241-2.004-1.241-.501 0-.993.179-1.506.547l-1.746 1.277c-.601.447-.902.988-.902 1.611 0 1.052.813 1.876 1.851 1.876.18 0 .36-.027.535-.078v3.371c0 1.462 1.041 2.128 2.008 2.128.727 0 1.495-.377 1.832-1.185.74.829 1.76 1.292 3.004 1.292 2.659 0 4.311-2.106 4.311-5.497 0-3.361-1.652-5.449-4.311-5.449" fill="#C94E4B"/><path d="M19.613 22.857c-.239 0-.539.084-.923.359l-1.739 1.272c-.371.276-.492.54-.492.804 0 .503.373.876.851.876.181 0 .408-.061.624-.229l.911-.707v5.229c0 .971.684 1.127 1.008 1.127.324 0 1.008-.156 1.008-1.127v-6.189c0-1.235-.816-1.415-1.248-1.415M24.689 22.749c-2.41 0-3.334 2.051-3.334 4.449 0 2.411.924 4.498 3.334 4.498 2.399 0 3.311-2.087 3.311-4.498 0-2.398-.912-4.449-3.311-4.449m0 7.22c-1.066 0-1.271-1.68-1.271-2.771 0-1.067.205-2.747 1.271-2.747 1.057 0 1.248 1.68 1.248 2.747 0 1.091-.191 2.771-1.248 2.771" fill="#fff"/></g></svg>