<svg height="16" viewBox="0 0 117.359 16" width="118" xmlns="http://www.w3.org/2000/svg"><path d="m7.547 2.502c-.291-.164-1.127-.062-2.132.252-1.757 1.216-3.24 3.007-3.343 5.884-.019.069-.193-.009-.227-.031-.475-.921-.664-1.89-.266-3.289.073-.125-.169-.278-.211-.234-.088.088-.45.479-.69.902-1.195 2.096-.414 4.782 1.674 5.957 2.089 1.177 4.725.418 5.888-1.696 1.345-2.44.095-7.3-.693-7.746" fill="#80b341"/><path d="m15.022 3.673c-2.476 0-4.274 1.863-4.274 4.43 0 2.588 1.792 4.395 4.36 4.395 1.296 0 2.323-.41 3.139-1.255.244-.266.27-.523.27-.621 0-.419-.307-.722-.731-.722-.213 0-.392.082-.597.273-.462.436-1.071.882-2.081.882-1.405 0-2.548-1.068-2.62-2.439h5.592c.608 0 .903-.288.903-.879 0-.174 0-.3-.034-.548-.302-2.201-1.769-3.515-3.927-3.515zm0 1.374c1.342 0 2.204.866 2.257 2.264h-4.788c.125-1.294 1.205-2.264 2.531-2.264z" fill="#131412"/><path d="m24.323 3.673c-1.125 0-2.238.654-2.673 1.564v-.562c0-.871-.667-.915-.8-.915-.395 0-.817.24-.817.915v6.786c0 .904.708.949.852.949.141 0 .852-.046.852-.949v-3.638c0-1.583.886-2.688 2.155-2.688 1.227 0 1.825.816 1.825 2.496v3.831c0 .904.711.949.853.949s.851-.046.851-.949v-4.373c0-1.651-.814-3.416-3.097-3.416" fill="#131412"/><path d="m35.127 3.76c-.394 0-.679.233-.85.69l-2.329 5.932-2.312-5.932c-.181-.464-.464-.69-.867-.69-.469 0-.852.371-.852.827 0 .113.013.259.107.488l2.678 6.401c.319.772.844.934 1.227.934.385 0 .909-.162 1.229-.934l2.695-6.437c.093-.226.107-.391.107-.47 0-.461-.359-.81-.835-.81" fill="#131412"/><path d="m40.08 3.673c-1.089 0-2.104.307-2.858.864-.254.178-.378.401-.378.68 0 .385.29.687.661.687.16 0 .341-.065.506-.182.647-.437 1.255-.64 1.912-.64 1.26 0 1.983.648 1.983 1.779v.187c-2.827.003-5.702.349-5.702 2.838 0 1.792 1.513 2.594 3.011 2.594 1.194 0 2.148-.479 2.76-1.385v.436c0 .649.431.879.8.879.077 0 .765-.025.765-.879v-4.565c0-2.062-1.294-3.293-3.46-3.293zm1.467 4.645h.359v.397c0 1.453-.915 2.391-2.328 2.391-.385 0-1.636-.09-1.636-1.255 0-1.375 2.057-1.534 3.605-1.534z" fill="#131412"/><path d="m47.975 5.327c.745 0 .783-.587.783-.704 0-.349-.206-.722-.783-.722h-1.533v-1.569c0-.701-.449-.95-.833-.95-.142 0-.853.046-.853.95v7.451c0 1.719.839 2.628 2.424 2.628.41 0 .811-.073 1.072-.197.3-.151.472-.4.472-.683 0-.398-.285-.687-.679-.687-.076 0-.185.019-.304.054-.146.037-.244.051-.353.051-.645 0-.945-.426-.945-1.342v-4.28h1.533" fill="#131412"/><path d="m53.608 3.673c-2.576 0-4.445 1.848-4.445 4.395 0 1.24.453 2.37 1.274 3.182.817.806 1.942 1.249 3.172 1.249 2.543 0 4.463-1.905 4.463-4.431 0-2.546-1.878-4.395-4.463-4.395zm0 7.364c-1.768 0-2.69-1.493-2.69-2.969 0-2.027 1.393-2.95 2.69-2.95 1.296 0 2.689.923 2.689 2.95 0 2.04-1.395 2.969-2.689 2.969z" fill="#131412"/><g fill="#80b341"><path d="m63.238 3.481c-.664 0-1.285.192-1.846.571-.557.376-1 .905-1.317 1.572-.313.66-.472 1.395-.472 2.184v.339c0 .791.165 1.522.49 2.173.327.657.787 1.181 1.365 1.559.582.38 1.232.573 1.928.573 1.264 0 2.234-.481 2.883-1.43.078-.116.05-.275-.063-.356l-.283-.204c-.111-.079-.264-.057-.347.051-.266.346-.575.604-.917.768-.343.165-.771.248-1.272.248-.513 0-.994-.148-1.434-.439-.444-.294-.797-.707-1.052-1.227-.257-.526-.386-1.106-.386-1.725v-.186h5.783c.14 0 .254-.115.254-.258v-.43c0-1.115-.31-2.032-.921-2.726-.618-.702-1.424-1.058-2.392-1.058zm-2.665 3.55c.12-.728.408-1.34.855-1.824.5-.541 1.091-.804 1.81-.804.448 0 .859.119 1.22.355.363.237.653.575.863 1.005.19.391.296.817.316 1.269h-5.064z"/><path d="m68.269.31h-.403c-.139 0-.254.115-.254.257v11.576c0 .142.115.257.254.257h.403c.139 0 .253-.115.253-.257v-11.576c0-.142-.114-.257-.253-.257"/><path d="m73.207 3.481c-.664 0-1.285.192-1.846.571-.557.376-1 .905-1.316 1.572-.313.66-.471 1.395-.471 2.184v.339c0 .791.163 1.522.488 2.173.327.657.787 1.181 1.366 1.559.583.38 1.231.573 1.928.573 1.264 0 2.234-.481 2.882-1.43.079-.116.052-.275-.062-.356l-.282-.204c-.111-.079-.264-.057-.347.051-.267.345-.576.604-.917.768-.344.165-.772.248-1.273.248-.513 0-.996-.148-1.435-.439-.444-.294-.797-.707-1.051-1.227-.257-.525-.387-1.106-.387-1.725v-.186h5.785c.139 0 .253-.115.253-.258v-.43c0-1.115-.309-2.032-.92-2.726-.619-.702-1.425-1.058-2.394-1.058zm-2.665 3.55c.121-.728.408-1.34.855-1.824.5-.541 1.092-.804 1.81-.804.456 0 .855.116 1.221.355.363.237.653.575.863 1.005.19.391.297.818.317 1.269h-5.065z"/><path d="m86.621 3.556c-.712 0-1.364.19-1.939.564-.39.255-.71.571-.955.945-.175-.437-.432-.775-.769-1.012-.471-.33-1.077-.498-1.8-.498-.667 0-1.282.198-1.83.59-.292.208-.549.464-.769.765v-.947c0-.142-.114-.257-.254-.257h-.409c-.14 0-.254.115-.254.257v8.154c0 .142.114.258.254.258h.409c.14 0 .254-.115.254-.258v-5.124c.103-.523.31-1.008.615-1.441.515-.724 1.156-1.075 1.96-1.075.685 0 1.183.172 1.482.512.306.349.463.906.467 1.655v5.474c0 .142.114.258.255.258h.401c.141 0 .254-.115.254-.258l-.001-5.402c.027-.365.189-.755.486-1.159.527-.712 1.221-1.065 2.122-1.079.692-.012 1.167.166 1.474.537.314.379.473.991.473 1.819v5.285c0 .142.114.258.254.258h.402c.14 0 .254-.115.254-.258v-5.321c-.005-1.053-.242-1.862-.706-2.405-.473-.555-1.19-.835-2.131-.835"/><path d="m94.196 3.481c-.663 0-1.285.192-1.846.571-.557.376-1 .905-1.316 1.572-.313.66-.472 1.395-.472 2.184v.339c0 .791.165 1.522.489 2.173.327.657.787 1.181 1.366 1.559.583.38 1.231.572 1.928.572 1.264 0 2.234-.481 2.882-1.43.079-.116.051-.275-.062-.356l-.283-.204c-.111-.079-.264-.057-.347.051-.266.346-.575.604-.917.768-.343.165-.771.248-1.272.248-.513 0-.996-.148-1.435-.439-.443-.294-.795-.707-1.051-1.227-.257-.526-.387-1.107-.387-1.725v-.186h5.784c.14 0 .254-.115.254-.258v-.43c0-1.115-.31-2.032-.921-2.726-.618-.702-1.424-1.058-2.393-1.058zm-2.665 3.55c.121-.728.408-1.34.855-1.824.5-.541 1.092-.804 1.81-.804.456 0 .855.116 1.221.355.363.237.653.575.863 1.005.19.392.296.818.316 1.269h-5.065z"/><path d="m102.162 3.542c-.671 0-1.292.201-1.845.598-.29.208-.543.457-.76.746v-.936c0-.142-.114-.257-.254-.257h-.402c-.14 0-.254.115-.254.257v8.154c0 .142.114.258.254.258h.402c.14 0 .254-.115.254-.258v-5.188c.168-.723.49-1.32.954-1.776.464-.455.996-.676 1.629-.676.672 0 1.163.18 1.458.537.306.37.464.967.469 1.773v5.33c0 .142.114.258.254.258h.402c.14 0 .254-.115.254-.258v-5.321c-.005-1.058-.24-1.868-.698-2.408-.468-.552-1.18-.832-2.117-.832"/><path d="m109.998 11.464c-.811.117-1.268.085-1.485-.237-.156-.233-.235-.615-.235-1.138v-5.536h1.577c.14 0 .254-.115.254-.257v-.407c0-.142-.114-.257-.254-.257h-1.577v-1.943c0-.142-.114-.258-.254-.258h-.408c-.141 0-.255.115-.255.258v1.943h-1.235c-.14 0-.254.115-.254.257v.407c0 .142.114.257.254.257h1.235v5.591c.006.775.15 1.335.441 1.714.302.394.793.593 1.459.593.431 0 .735-.035.928-.106.116-.043.185-.164.163-.286l-.067-.384c-.024-.137-.152-.229-.286-.21"/><path d="m116.936 8.861c-.197-.327-.513-.61-.938-.843-.405-.221-.957-.414-1.641-.574-.644-.151-1.137-.308-1.467-.467-.308-.149-.53-.313-.658-.487-.12-.162-.18-.401-.18-.709 0-.385.169-.699.516-.962.365-.276.877-.416 1.523-.416.672 0 1.22.166 1.629.495.396.318.589.701.589 1.17 0 .142.114.257.254.257h.409c.14 0 .255-.115.255-.257 0-.793-.299-1.433-.887-1.902-.57-.454-1.326-.685-2.249-.685-.853 0-1.56.214-2.1.634-.564.436-.849 1.002-.849 1.681 0 .669.228 1.205.677 1.594.429.371 1.15.661 2.205.889 1.548.331 2.3.909 2.3 1.768 0 .4-.187.735-.572 1.026-.402.304-.941.458-1.601.458-.728 0-1.308-.146-1.721-.433-.395-.275-.604-.649-.638-1.144-.009-.135-.12-.239-.254-.239h-.402c-.14 0-.254.115-.254.257 0 .736.314 1.345.933 1.808.595.446 1.381.672 2.336.672.896 0 1.635-.215 2.198-.639.587-.441.885-1.033.885-1.759 0-.463-.101-.864-.298-1.192"/></g></svg>