<svg height="16" viewBox="0 0 687 83" xmlns="http://www.w3.org/2000/svg"><path d="m284.687117 20.1012189h12.312883l-.948555 4.3431538h-12.311356l-6.839981 31.009605c-.316185 1.5150536-.525447 3.1311108-.525447 4.2436577 0 3.9376319 2.524897 5.8566998 6.523796 5.8566998 2.841082 0 6.629192-1.1110393 8.839431-2.5235819l-.947027 4.5436534c-2.315635 1.4155576-6.209139 2.4255933-9.471801 2.4255933-6.523797 0-11.048144-3.333118-11.048144-9.2923289 0-1.6175647.314658-3.4356291.630843-4.9506827l6.945376-31.3126157h-7.366956l.947027-4.3431538h7.366957l2.946477-13.03096865 6.418401-2.4240858zm-33.251353 0h12.523673l-8.839431 40.2009304c-.316185 1.41405-.526975 2.6260929-.526975 3.2336219 0 1.3130465.84316 2.1210751 2.526425 2.1210751 1.368607 0 3.051872-.5050179 4.418952-1.3130465l-.9455 4.1411466c-1.26474.9075246-3.789637 1.5150536-5.683692 1.5150536-4.104294 0-6.313006-2.2220786-6.313006-5.6562002 0-.7085325.209262-2.4255933.525447-3.7386398l7.997799-36.1607873h-6.630719zm16.417178-14.54451476c0 2.52358186-2.735687 4.84666406-5.262112 4.84666406-1.894055 0-3.262662-1.41254251-3.262662-3.23060686 0-2.52659689 2.526425-4.74867554 5.052849-4.74867554 1.894055 0 3.471925 1.31455399 3.471925 3.13261834zm-39.526173 27.16996166c0-2.7270965-1.78866-4.7456605-5.262112-4.7456605-7.049244 0-12.942198 6.9692467-15.25936 14.4435112 1.368608.3030107 3.895032.6060215 5.683692.6060215 9.681063 0 14.83778-4.4441573 14.83778-10.3038722zm12.838331 0c0 10.2028686-10.417301 18.2831546-25.676661 18.2831546-2.841082 0-6.630719-.3030107-9.261012-.9090322 0 .4040143-.105394.8080286-.105394 1.1110393 0 6.2622217 4.315084 9.7988543 10.629618 9.7988543 5.682164 0 12.83833-2.4255933 17.573467-5.1526898l-1.999449 9.3933325c-4.945927 2.8281001-12.418279 4.7486755-19.04747 4.7486755-12.102093 0-21.152314-5.9607184-21.152314-18.182151 0-16.6670974 13.786885-32.6271698 32.201985-32.6271698 9.681063 0 16.83723 4.5466684 16.83723 13.5359866zm-49.58452.6060215c0 .8080286-.209262 2.2220786-.314657 2.728604l-13.469173.3015032c.103867-.5050179.209262-1.4125425.209262-2.1195676 0-3.3346254-1.261685-6.2622216-5.262112-6.2622216-4.313556 0-7.996271 3.1311108-10.522696 7.0687427-3.051872 4.7471681-4.945926 11.3139079-4.945926 16.5660938 0 6.2637292 3.682714 9.39484 10.418828 9.39484 5.365979 0 12.205961-2.2235861 17.362678-5.2536934l-2.104845 9.39484c-4.420479 2.725589-11.469723 4.8481716-17.995047 4.8481716-12.311356 0-21.783157-5.5567041-21.783157-18.2831546 0-16.8691045 12.629068-32.5261662 30.727983-32.5261662 10.629618 0 17.678862 5.4557006 17.678862 14.1420081zm-71.471544 15.4550544 4.524347-20.3017185c-.841632-.5050179-1.99945-.8095361-3.261134-.8095361-12.207489 0-19.994498 14.1405005-19.994498 24.4443726 0 5.7587113 2.419503 8.787311 7.154639 8.787311 3.368057 0 5.789087-1.2105353 7.683142-3.2321144 1.894055-2.1195675 3.051872-5.2521859 3.893504-8.8883146zm12.838331-26.7674548 7.576219-1.919068-7.997799 35.8577767c-.209263 1.0100357-.420053 2.121075-.420053 2.728604 0 1.311539.736238 2.0200715 2.315635 2.0200715 1.36708 0 3.36653-.7085325 4.735137-1.4155576l-1.683265 7.6777793c-2.737214 1.6145496-6.209139 2.6260929-9.891853 2.6260929-4.20969 0-7.788537-1.8180643-8.735564-5.354697-2.946477 3.333118-8.313984 5.7587113-14.62699 5.7587113-10.5242238 0-16.9426254-6.6662359-16.9426254-17.475126 0-18.4851617 15.2593604-33.3341948 34.4106974-33.3341948 4.104294 0 8.419379 1.1125469 11.260461 2.8296077zm-65.4747225-22.0202869h20.7322619l-12.4182781 56.3630099c-.21079 1.0115432-.42158 2.121075-.42158 2.7270965 0 1.3130465.8431599 2.0200715 2.4210297 2.0200715 1.3670798 0 3.262662-.707025 4.6297418-1.4125425l-1.6832648 7.6747641c-2.7356871 1.6175648-6.209139 2.6276005-9.8918535 2.6276005-5.5767692 0-9.6810636-2.4255933-9.6810636-8.2838007 0-1.41405.2092625-3.2321144.7362374-5.454193l10.3134335-46.76616274h-6.8399815zm-21.0652489 22.929319c0-2.6260929-.7362374-4.5466684-2.1048447-5.7572037-1.8940547-1.6175648-4.9459267-2.2220787-9.5756686-2.2220787h-8.2085887l-5.3675067 24.1413619h5.9998765c6.7345865 0 11.0481434-1.4155575 13.9946205-3.9406469 3.5788469-2.9291037 5.2621117-7.9792824 5.2621117-12.2214326zm15.0485703-.8080286c0 7.7772753-3.368057 14.6470259-9.1556162 19.2931904-5.5782966 4.4441573-13.2599105 6.5652323-23.046369 6.5652323h-9.9957211l-4.6312693 21.1097472h-14.6269903l11.8913032-54.1394237h-7.36695636l2.10484468-9.79885428h29.57016558c9.2610111 0 15.5755452 1.31304648 19.8891021 4.64767197 3.5788469 2.72709651 5.3675067 6.66623591 5.3675067 12.32243611z"/><path d="m425.849393 19.9660158c-1.507124-.8211081-5.827968-.312401-11.016359 1.2622692-9.080738 6.0875989-16.743008 15.0543535-17.279155 29.4585752-.097098.3440633-.992085-.0485489-1.169394-.1562006-2.45277-4.6079155-3.423746-9.460686-1.376253-16.4622691.382058-.6248021-.865435-1.3931398-1.089182-1.171504-.449604.441161-2.32401 2.3978892-3.569393 4.5150396-6.16781 10.492876-2.134037 23.9387863 8.658575 29.8237467 10.788391 5.8934037 24.41161 2.0918206 30.418998-8.4939314 6.948812-12.2153034.496042-36.5424802-3.577837-38.7757256" fill="#80b341"/><g fill="#121212"><path d="m464.466596 32.7092348c6.936148 0 11.387863 4.3356201 11.662269 11.3329816h-24.740897c.648021-6.4759895 6.231135-11.3329816 13.078628-11.3329816m0-6.8812665c-12.791556 0-22.077045 9.3277045-22.077045 22.1783642 0 12.9562005 9.260159 22.0031662 22.522428 22.0031662 6.699736 0 12.002111-2.0538259 16.221636-6.283905 1.258047-1.3319262 1.39314-2.6174143 1.39314-3.1092349 0-2.0939314-1.587335-3.6158311-3.776254-3.6158311-1.103957 0-2.026385.4073879-3.083905 1.3656992-2.389446 2.1825858-5.532454 4.4137203-10.754617 4.4137203-7.259103 0-13.163061-5.344591-13.534565-12.2089709h28.890765c3.143008 0 4.66913-1.4416887 4.66913-4.4031663 0-.8717678 0-1.5007915-.17942-2.7440633-1.557783-11.0184697-9.141952-17.5957784-20.291293-17.5957784"/><path d="m512.52591 25.8286016c-5.811082 0-11.565171 3.2781002-13.811082 7.8290237v-2.8116095c0-4.358839-3.444854-4.5783641-4.132981-4.5783641-2.041161 0-4.221636 1.2010554-4.221636 4.5783641v33.9736148c0 4.5234829 3.66438 4.753562 4.398945 4.753562.734564 0 4.401055-.2300791 4.401055-4.753562v-18.2121372c0-7.9240106 4.578364-13.4585752 11.134565-13.4585752 6.34934 0 9.437467 4.0844327 9.437467 12.4939314v19.176781c0 4.5234829 3.666491 4.753562 4.401055 4.753562.734565 0 4.398945-.2300791 4.398945-4.753562v-21.8912929c0-8.265963-4.20475-17.0997361-16.006333-17.0997361"/><path d="m568.353456 26.2676517c-2.034828 0-3.51029 1.1630607-4.38839 3.4532982l-12.040106 29.6949868-11.94934-29.6949868c-.935092-2.3240106-2.4-3.4532982-4.477045-3.4532982-2.42533 0-4.401055 1.8575198-4.401055 4.139314 0 .5656992.065435 1.298153.553034 2.4422164l13.836412 32.046438c1.650659 3.8649076 4.36306 4.6775725 6.34934 4.6775725 1.984169 0 4.69657-.8126649 6.34934-4.6754617l13.929288-32.2258575c.474934-1.1292876.548813-1.9609499.548813-2.3514512 0-2.3113457-1.855409-4.0527705-4.310291-4.0527705"/><path d="m601.53066 49.0826385h1.851187v1.9883905c0 7.2738787-4.7219 11.9704486-12.027441 11.9704486-1.982058 0-8.453826-.4517151-8.453826-6.2796834 0-6.8833773 10.63008-7.6791557 18.63008-7.6791557m-7.58628-23.2548812c-5.629552 0-10.872823 1.5387862-14.76095 4.3271767-1.319261.892876-1.96095 2.0052771-1.96095 3.4047494 0 1.9292876 1.500792 3.4385224 3.419525 3.4385224.831663 0 1.758312-.3229551 2.611082-.9076517 3.343536-2.1868074 6.486544-3.2063325 9.88496-3.2063325 6.507652 0 10.2438 3.2443272 10.2438 8.9055409v.9372032c-14.60686.0168865-29.464908 1.7456464-29.464908 14.2100264 0 8.9709762 7.81847 12.985752 15.563061 12.985752 6.16781 0 11.094459-2.3978892 14.256464-6.9361478v2.1825858c0 3.2506596 2.224802 4.4031662 4.135093 4.4031662.401055 0 3.951451-.1245383 3.951451-4.4031662v-22.8538259c0-10.3240106-6.684961-16.4875989-17.878628-16.4875989"/><path d="m634.743113 34.111029c3.850132 0 4.046438-2.9403694 4.046438-3.5292876 0-1.7456464-1.063852-3.6137203-4.046438-3.6137203h-7.917678v-7.8543536c0-3.5102902-2.321899-4.753562-4.31029-4.753562-.736675 0-4.401055.2279684-4.401055 4.753562v37.2981531c0 8.6100264 4.329287 13.1609498 12.523483 13.1609498 2.119261 0 4.185752-.3693931 5.534564-.9857519 1.549341-.7577837 2.437995-2.0031663 2.437995-3.4174143 0-1.9947229-1.475462-3.442744-3.51029-3.442744-.392612 0-.951979.0970976-1.566227.2701847-.755673.1857519-1.26438.2575197-1.823747.2575197-3.335092 0-4.884433-2.1361477-4.884433-6.7187335v-21.4248021z"/><path d="m663.846227 62.691504c-9.129288 0-13.901847-7.4765172-13.901847-14.8601584 0-10.1509234 7.206332-14.7715039 13.901847-14.7715039 6.695514 0 13.901847 4.6205805 13.901847 14.7715039 0 10.2100264-7.206333 14.8601584-13.901847 14.8601584m0-36.8633246c-13.310818 0-22.969921 9.2538259-22.969921 22.0031662 0 6.2058048 2.340897 11.8627969 6.587863 15.9261214 4.213192 4.0316623 10.030607 6.2522428 16.382058 6.2522428 13.146174 0 23.058575-9.5345647 23.058575-22.1783642 0-12.7493403-9.699208-22.0031662-23.058575-22.0031662"/><path d="m323.154301 65.6021108c-2.286016 0-4.200528-.56781-5.686544-1.6865435-1.422691-1.0680739-2.300791-2.5646438-2.674406-4.5656992l3.373087-14.887599c.85066-2.1277045 2.427441-3.953562 4.692348-5.4205804 2.313457-1.5007916 4.770449-2.2627969 7.30132-2.2627969 1.663324 0 2.997361.3989446 4.075989 1.2200528 1.072296.8189974 1.796306 2.028496 2.207916 3.7002638.434828 1.762533.529815 3.7129288.289182 5.7477573l-.510818 3.2358839-.141425.6015831c-1.074406 4.521372-2.78628 8.1055409-5.087071 10.6490765-2.237467 2.4675462-4.802111 3.6686016-7.839578 3.6686016zm17.017414-14.5751979c.249077-1.2432717.434829-2.5519789.559367-3.9050132.200527-2.619525-.033773-5.0490765-.700792-7.2253298-.69657-2.2712401-1.901847-4.0274406-3.582058-5.2200527-1.673878-1.1905014-3.74248-1.7920845-6.148812-1.7920845-2.594196 0-5.078628.6226913-7.381531 1.8511874-1.139842.6079155-2.22058 1.3551451-3.233773 2.2311345l3.617942-16.0591029c.073879-.3271768 0-.660686-.202638-.916095-.200528-.2554089-.510818-.4031662-.842217-.4031662h-1.686543c-.542481 0-1.025858.3905013-1.144064.9266491l-10.332454 47.0564644c-.069657.3229551.004222.6585752.206861.9118733.200527.2532982.508707.4010554.840105.4010554h1.686544c.540369 0 1.021636-.3862797 1.141952-.916095l.559367-2.4548812c.762005.9372031 1.692876 1.7203166 2.782058 2.3408971 1.914512 1.089182 4.160422 1.6422163 6.672296 1.6422163 3.886015 0 7.358311-1.5134564 10.317678-4.5002638 2.879155-2.9002639 5.019525-6.8981531 6.366227-11.9007916z"/><path d="m374.025224 34.0781003c-.185752-.3398417-.544591-.5509235-.941425-.5509235h-1.906068c-.405277 0-.791557.219525-1.002639.5741425l-16.753562 27.9029023-4.861213-27.6580475c-.090766-.5129287-.529816-.880211-1.055409-.880211h-1.781531c-.339841 0-.669129.1540897-.892876.4200527-.223746.2638523-.320844.6121372-.261741.9435357l5.802638 32.4073878-3.02058 5.1208443-1.312929 1.9841689c-1.93562 2.7145119-4.037995 4.0337731-6.429551 4.0337731-.162533 0-.629024-.0316623-1.922955-.2596306-.303958-.0506596-.616359.023219-.869657.208971-.255409.1836411-.426386.4601583-.477045.7641161l-.255409 1.5873351c-.088655.5572559.242744 1.0744063.776781 1.2158311.947757.2511873 1.878628.3799472 2.786279.3799472h.002111c2.163589-.0443272 4.181531-.7218997 6.003166-2.0094987 1.792085-1.2643799 3.520845-3.3540897 5.285489-6.3831134l23.054353-38.6912929c.208971-.348285.219525-.7683377.033773-1.1102902"/></g></svg>